REM DIRINDEX 1\2,1\3,1\4,1\5\6,1\5\7,1\8
REM DIRNAME folder01,folder02,folder03,folder04,folder05,folder06,folder07,folder08
TITLE ""
FILE "071 【071】Unit4 (0805 inflict_0816 preoccupied).mp3" MP3
  TRACK 01 AUDIO
    TITLE "0:"
    INDEX 01 00:00:00
  TRACK 02 AUDIO
    TITLE "2:cjc115_2758"
    INDEX 01 00:00:07
  TRACK 03 AUDIO
    TITLE "0:"
    INDEX 01 00:01:24
  TRACK 04 AUDIO
    TITLE "3:cjc115_2759"
    INDEX 01 00:01:32
  TRACK 05 AUDIO
    TITLE "0:"
    INDEX 01 00:04:11
  TRACK 06 AUDIO
    TITLE "4:cjc115_2760"
    INDEX 01 00:04:13
  TRACK 07 AUDIO
    TITLE "0:"
    INDEX 01 00:07:58
  TRACK 08 AUDIO
    TITLE "2:cjc115_2761"
    INDEX 01 00:08:66
  TRACK 09 AUDIO
    TITLE "0:"
    INDEX 01 00:09:67
  TRACK 10 AUDIO
    TITLE "3:cjc115_2762"
    INDEX 01 00:09:73
  TRACK 11 AUDIO
    TITLE "0:"
    INDEX 01 00:11:64
  TRACK 12 AUDIO
    TITLE "4:cjc115_2763"
    INDEX 01 00:11:72
  TRACK 13 AUDIO
    TITLE "0:"
    INDEX 01 00:16:32
  TRACK 14 AUDIO
    TITLE "2:cjc115_2764"
    INDEX 01 00:17:37
  TRACK 15 AUDIO
    TITLE "0:"
    INDEX 01 00:18:58
  TRACK 16 AUDIO
    TITLE "3:cjc115_2765"
    INDEX 01 00:18:66
  TRACK 17 AUDIO
    TITLE "0:"
    INDEX 01 00:22:25
  TRACK 18 AUDIO
    TITLE "4:cjc115_2766"
    INDEX 01 00:22:34
  TRACK 19 AUDIO
    TITLE "0:"
    INDEX 01 00:26:22
  TRACK 20 AUDIO
    TITLE "2:cjc115_2767"
    INDEX 01 00:27:34
  TRACK 21 AUDIO
    TITLE "0:"
    INDEX 01 00:28:72
  TRACK 22 AUDIO
    TITLE "3:cjc115_2768"
    INDEX 01 00:29:03
  TRACK 23 AUDIO
    TITLE "0:"
    INDEX 01 00:31:71
  TRACK 24 AUDIO
    TITLE "4:cjc115_2769"
    INDEX 01 00:32:05
  TRACK 25 AUDIO
    TITLE "0:"
    INDEX 01 00:35:41
  TRACK 26 AUDIO
    TITLE "2:cjc115_2770"
    INDEX 01 00:36:50
  TRACK 27 AUDIO
    TITLE "0:"
    INDEX 01 00:37:52
  TRACK 28 AUDIO
    TITLE "3:cjc115_2771"
    INDEX 01 00:37:63
  TRACK 29 AUDIO
    TITLE "0:"
    INDEX 01 00:39:74
  TRACK 30 AUDIO
    TITLE "4:cjc115_2772"
    INDEX 01 00:40:07
  TRACK 31 AUDIO
    TITLE "0:"
    INDEX 01 00:44:44
  TRACK 32 AUDIO
    TITLE "2:cjc115_2773"
    INDEX 01 00:45:53
  TRACK 33 AUDIO
    TITLE "0:"
    INDEX 01 00:47:05
  TRACK 34 AUDIO
    TITLE "3:cjc115_2774"
    INDEX 01 00:47:13
  TRACK 35 AUDIO
    TITLE "0:"
    INDEX 01 00:48:40
  TRACK 36 AUDIO
    TITLE "4:cjc115_2775"
    INDEX 01 00:48:51
  TRACK 37 AUDIO
    TITLE "0:"
    INDEX 01 00:52:14
  TRACK 38 AUDIO
    TITLE "2:cjc115_2776"
    INDEX 01 00:53:19
  TRACK 39 AUDIO
    TITLE "0:"
    INDEX 01 00:54:60
  TRACK 40 AUDIO
    TITLE "3:cjc115_2777"
    INDEX 01 00:54:64
  TRACK 41 AUDIO
    TITLE "0:"
    INDEX 01 00:56:51
  TRACK 42 AUDIO
    TITLE "4:cjc115_2778"
    INDEX 01 00:56:61
  TRACK 43 AUDIO
    TITLE "0:"
    INDEX 01 01:01:40
  TRACK 44 AUDIO
    TITLE "2:cjc115_2779"
    INDEX 01 01:02:46
  TRACK 45 AUDIO
    TITLE "0:"
    INDEX 01 01:03:71
  TRACK 46 AUDIO
    TITLE "3:cjc115_2780"
    INDEX 01 01:04:05
  TRACK 47 AUDIO
    TITLE "0:"
    INDEX 01 01:05:36
  TRACK 48 AUDIO
    TITLE "4:cjc115_2781"
    INDEX 01 01:05:42
  TRACK 49 AUDIO
    TITLE "0:"
    INDEX 01 01:09:44
  TRACK 50 AUDIO
    TITLE "2:cjc115_2782"
    INDEX 01 01:10:51
  TRACK 51 AUDIO
    TITLE "0:"
    INDEX 01 01:12:05
  TRACK 52 AUDIO
    TITLE "3:cjc115_2783"
    INDEX 01 01:12:13
  TRACK 53 AUDIO
    TITLE "0:"
    INDEX 01 01:13:38
  TRACK 54 AUDIO
    TITLE "4:cjc115_2784"
    INDEX 01 01:13:47
  TRACK 55 AUDIO
    TITLE "0:"
    INDEX 01 01:18:21
  TRACK 56 AUDIO
    TITLE "2:cjc115_2785"
    INDEX 01 01:19:30
  TRACK 57 AUDIO
    TITLE "0:"
    INDEX 01 01:20:53
  TRACK 58 AUDIO
    TITLE "3:cjc115_2786"
    INDEX 01 01:20:63
  TRACK 59 AUDIO
    TITLE "0:"
    INDEX 01 01:22:72
  TRACK 60 AUDIO
    TITLE "4:cjc115_2787"
    INDEX 01 01:23:05
  TRACK 61 AUDIO
    TITLE "0:"
    INDEX 01 01:27:26
  TRACK 62 AUDIO
    TITLE "2:cjc115_2788"
    INDEX 01 01:28:33
  TRACK 63 AUDIO
    TITLE "0:"
    INDEX 01 01:29:37
  TRACK 64 AUDIO
    TITLE "3:cjc115_2789"
    INDEX 01 01:29:45
  TRACK 65 AUDIO
    TITLE "0:"
    INDEX 01 01:31:00
  TRACK 66 AUDIO
    TITLE "4:cjc115_2790"
    INDEX 01 01:31:06
  TRACK 67 AUDIO
    TITLE "0:"
    INDEX 01 01:34:08
  TRACK 68 AUDIO
    TITLE "2:cjc115_2791"
    INDEX 01 01:35:18
  TRACK 69 AUDIO
    TITLE "0:"
    INDEX 01 01:36:60
  TRACK 70 AUDIO
    TITLE "3:cjc115_2792"
    INDEX 01 01:36:68
  TRACK 71 AUDIO
    TITLE "0:"
    INDEX 01 01:40:58
  TRACK 72 AUDIO
    TITLE "4:cjc115_2793"
    INDEX 01 01:40:68
  TRACK 73 AUDIO
    TITLE "0:"
    INDEX 01 01:45:34
